# xmcd CD database file
#
# Track frame offsets:
#	150
#	21845
#	44380
#
# Disc length: 826 seconds
#
# Revision: 0
# Processed by: cddbd v1.5PL3 Copyright (c) Steve Scherf et al.
# Submitted via: CDex 1.51
#
DISCID=1d033803
DTITLE=スムルース - 帰り道ジェット
DYEAR=2004
DGENRE=Rock
TTITLE0=帰り道ジェット
TTITLE1=6月の天気予報
TTITLE2=月のかたち
EXTD=YEAR: 2004
EXTT0=
EXTT1=
EXTT2=
PLAYORDER=
